<svg preserveAspectRatio="none" width="100%" height="100%" overflow="visible" style="display: block;" viewBox="0 0 4 19" fill="none" xmlns="http://www.w3.org/2000/svg">
<path id="icon" d="M1.88889 11.3333C0.85 11.3333 0 10.4833 0 9.44444C0 8.40555 0.85 7.55555 1.88889 7.55555C2.92778 7.55555 3.77778 8.40555 3.77778 9.44444C3.77778 10.4833 2.92778 11.3333 1.88889 11.3333ZM3.77778 1.88889C3.77778 0.85 2.92778 0 1.88889 0C0.85 0 0 0.85 0 1.88889C0 2.92778 0.85 3.77778 1.88889 3.77778C2.92778 3.77778 3.77778 2.92778 3.77778 1.88889ZM3.77778 17C3.77778 15.9611 2.92778 15.1111 1.88889 15.1111C0.85 15.1111 0 15.9611 0 17C0 18.0389 0.85 18.8889 1.88889 18.8889C2.92778 18.8889 3.77778 18.0389 3.77778 17Z" fill="var(--fill-0, #130032)" fill-opacity="0.9" style="fill:#130032;fill:color(display-p3 0.0745 0.0000 0.1961);fill-opacity:0.9;"/>
</svg>
