<svg preserveAspectRatio="none" width="100%" height="100%" overflow="visible" style="display: block;" viewBox="0 0 17 17" fill="none" xmlns="http://www.w3.org/2000/svg">
<g id="iris mark">
<path id="Vector" d="M7.08425 4.82742C6.33224 3.90193 5.19832 3.43705 3.29606 3.05212C3.28198 3.04935 3.26815 3.04784 3.25457 3.04784C3.19272 3.04784 3.13439 3.076 3.09416 3.12503C3.05419 3.17406 3.03885 3.2349 3.05142 3.2965C3.4366 5.19877 3.90123 6.33269 4.82672 7.0847C5.77257 6.48128 6.48058 5.77327 7.084 4.82742H7.08425Z" fill="var(--fill-0, #CBC2FF)" style="fill:#CBC2FF;fill:color(display-p3 0.7961 0.7608 1.0000);fill-opacity:1;"/>
<path id="Vector_2" d="M12.6726 7.0847C13.5981 6.33269 14.063 5.19877 14.4479 3.2965C14.4605 3.2349 14.4452 3.17381 14.4052 3.12478C14.3652 3.076 14.3066 3.04784 14.245 3.04784C14.2309 3.04784 14.2171 3.0491 14.2035 3.05212C12.3013 3.4373 11.1671 3.90193 10.4153 4.82742C11.0188 5.77352 11.7268 6.48153 12.6726 7.0847Z" fill="var(--fill-0, #CBC2FF)" style="fill:#CBC2FF;fill:color(display-p3 0.7961 0.7608 1.0000);fill-opacity:1;"/>
<path id="Vector_3" d="M4.82754 10.4151C3.90205 11.1671 3.43717 12.301 3.05224 14.2033C3.03967 14.2651 3.05476 14.326 3.09499 14.375C3.14401 14.4348 3.21919 14.4637 3.29688 14.4479C5.19915 14.0627 6.33307 13.5981 7.08507 12.6726C6.48166 11.7267 5.77365 11.0187 4.82779 10.4153L4.82754 10.4151Z" fill="var(--fill-0, #CBC2FF)" style="fill:#CBC2FF;fill:color(display-p3 0.7961 0.7608 1.0000);fill-opacity:1;"/>
<path id="Vector_4" d="M10.4153 12.6726C11.1674 13.5981 12.3013 14.063 14.2035 14.4479C14.277 14.4637 14.3562 14.4353 14.4052 14.3752C14.4452 14.3262 14.4605 14.2651 14.4479 14.2032C14.0627 12.3012 13.5981 11.1671 12.6726 10.4153C11.7265 11.0187 11.0185 11.7267 10.4153 12.6726Z" fill="var(--fill-0, #CBC2FF)" style="fill:#CBC2FF;fill:color(display-p3 0.7961 0.7608 1.0000);fill-opacity:1;"/>
</g>
</svg>
